<?xml version="1.0" encoding="UTF-8" standalone="no"?>
<svg
   xmlns:osb="http://www.openswatchbook.org/uri/2009/osb"
   xmlns:dc="http://purl.org/dc/elements/1.1/"
   xmlns:cc="http://creativecommons.org/ns#"
   xmlns:rdf="http://www.w3.org/1999/02/22-rdf-syntax-ns#"
   xmlns:svg="http://www.w3.org/2000/svg"
   xmlns="http://www.w3.org/2000/svg"
   xmlns:sodipodi="http://sodipodi.sourceforge.net/DTD/sodipodi-0.dtd"
   xmlns:inkscape="http://www.inkscape.org/namespaces/inkscape"
   viewBox="0 0 96 96"
   id="Icons_Bell"
   overflow="hidden"
   version="1.1"
   sodipodi:docname="bell.svg"
   inkscape:version="0.92.4 (5da689c313, 2019-01-14)">
  <metadata
     id="metadata9">
    <rdf:RDF>
      <cc:Work
         rdf:about="">
        <dc:format>image/svg+xml</dc:format>
        <dc:type
           rdf:resource="http://purl.org/dc/dcmitype/StillImage" />
      </cc:Work>
    </rdf:RDF>
  </metadata>
  <defs
     id="defs7">
    <linearGradient
       id="linearGradient2270"
       osb:paint="solid">
      <stop
         style="stop-color:#000000;stop-opacity:1;"
         offset="0"
         id="stop2268" />
    </linearGradient>
    <linearGradient
       id="linearGradient816"
       osb:paint="solid">
      <stop
         style="stop-color:#000000;stop-opacity:1;"
         offset="0"
         id="stop814" />
    </linearGradient>
  </defs>
  <sodipodi:namedview
     pagecolor="#ffffff"
     bordercolor="#666666"
     borderopacity="1"
     objecttolerance="10"
     gridtolerance="10"
     guidetolerance="10"
     inkscape:pageopacity="0"
     inkscape:pageshadow="2"
     inkscape:window-width="1378"
     inkscape:window-height="799"
     id="namedview5"
     showgrid="false"
     inkscape:snap-text-baseline="false"
     inkscape:zoom="6.9532167"
     inkscape:cx="37.295877"
     inkscape:cy="53.537736"
     inkscape:window-x="0"
     inkscape:window-y="0"
     inkscape:window-maximized="0"
     inkscape:current-layer="Icons_Bell" />
  <path
     d="M80.4 70.4C76.7 62.2 67.6 59.3 67 35L67 35.1C66.7 28.1 62.6 22.2 56.8 19.2 57 18.5 57.1 17.8 57.1 17.1 57.1 12.1 53.1 8.1 48.1 8.1 43.1 8.1 39.1 12.1 39.1 17.1 39.1 17.8 39.2 18.6 39.4 19.2 33.6 22.2 29.5 28.2 29.2 35.1L29.2 35C28.6 59.3 19.5 62.2 15.8 70.4 14.8 71.7 14.2 73 14.2 74.5 14 82 29.2 88 48 88 66.8 88 82 82 82 74.5 82 73.1 81.5 71.7 80.4 70.4ZM48 12C50.8 12 53 14.2 53 17 53 17.2 53 17.4 52.9 17.7 51.4 17.2 49.7 17 48 17 46.3 17 44.6 17.2 43.1 17.7 43.1 17.5 43 17.3 43 17 43 14.2 45.2 12 48 12ZM48 82C30.5 82 21 76.7 20 74.5 20.8 72.6 28.5 68.1 42.6 67.2 42.2 68 41.9 69 41.9 70 41.9 73.3 44.6 76 48 76 51.4 76 54.1 73.3 54.1 70 54.1 69 53.8 68 53.4 67.2 67.5 68.1 75.2 72.6 76 74.5 75 76.7 65.5 82 48 82Z"
     stroke-width="1.33333"
     fill="#A5A5A5"
     id="path2" />
  <path
     style="fill:none;stroke:#000000;stroke-width:1px;stroke-linecap:butt;stroke-linejoin:miter;stroke-opacity:1"
     d="m 39.262403,21.933561 -3.811185,3.811186 -2.660639,4.746004 -1.006729,5.24937 -0.791,7.119007 -1.797729,8.413372 -2.301094,5.896551 -5.321278,8.125735 -4.674095,6.831372 -0.503365,2.948275 1.366275,2.948276 4.530277,2.732549 9.348191,3.811185 3.739277,0.647182 6.615643,1.006728 9.204373,0.143819 4.746005,-0.575273 5.896551,-0.86291 5.17746,-1.438184 4.602186,-1.582001 4.31455,-2.301093 3.164003,-2.876367 0.934819,-2.373003 -1.294365,-2.948275 -3.37973,-4.961732 -3.45164,-4.674096 -2.732548,-4.602186 -1.869638,-5.17746 -1.006729,-4.31455 -0.719091,-4.746005 -0.862911,-7.334735 -0.86291,-4.530277 -2.229183,-4.170732 -2.948276,-3.523549 -2.876367,-1.869638 -2.085366,-0.791001 -3.37973,-0.862909 -4.458368,0.143818 -3.739277,0.503364 z"
     id="path2276"
     inkscape:connector-curvature="0"
     sodipodi:nodetypes="cccccccccccccccccccccccccccccccccccccccc" />
  <ellipse
     style="fill:#ffffff;stroke:#000000;stroke-width:1;stroke-linecap:round;stroke-linejoin:round;stroke-miterlimit:4;stroke-dasharray:none;stroke-opacity:0.93969852;paint-order:stroke markers fill"
     id="path2292"
     cx="48.035316"
     cy="69.89698"
     rx="5.8460903"
     ry="5.6303625" />
  <path
     style="fill:#000000;stroke:#000000;stroke-width:0.14381833;stroke-linecap:round;stroke-linejoin:round;stroke-miterlimit:4;stroke-dasharray:none;stroke-opacity:0.93969852;paint-order:stroke markers fill"
     d="m 43.100213,17.320762 c -0.126076,-0.482114 0.143272,-1.8364 0.50767,-2.552577 0.460049,-0.904166 1.271471,-1.715726 2.187657,-2.188029 1.034914,-0.533508 2.833721,-0.615677 3.984002,-0.181988 1.764786,0.665374 2.966905,2.293941 3.103613,4.204607 l 0.07322,1.023405 -0.344507,-0.09322 c -1.615411,-0.437115 -2.899418,-0.555852 -5.234331,-0.484038 -1.586716,0.0488 -2.722563,0.154905 -3.235912,0.302278 -0.985496,0.282915 -0.959272,0.283682 -1.041416,-0.03044 z"
     id="path2298"
     inkscape:connector-curvature="0" />
  <path
     style="fill:#000000;stroke:#000000;stroke-width:0.14381833;stroke-linecap:round;stroke-linejoin:round;stroke-miterlimit:4;stroke-dasharray:none;stroke-opacity:0.93969852;paint-order:stroke markers fill"
     d="M 44.860721,81.847202 C 35.896025,81.563836 27.681263,79.642064 22.499513,76.615995 21.381629,75.963167 20.123968,74.84551 20.123968,74.504898 c 0,-0.340103 1.425723,-1.582001 2.580484,-2.24777 3.197492,-1.843491 7.74107,-3.308287 13.023805,-4.198722 2.446538,-0.412378 6.191935,-0.827673 6.318953,-0.700655 0.03711,0.03711 -0.03392,0.413348 -0.157844,0.836087 -0.350422,1.195404 -0.213331,3.159239 0.294468,4.218256 1.1356,2.368302 3.897903,3.926931 6.449499,3.639129 1.713231,-0.193241 3.086048,-0.884711 4.238335,-2.134794 1.208739,-1.311328 1.758528,-3.122451 1.48433,-4.889705 -0.08519,-0.54906 -0.217853,-1.115937 -0.294808,-1.259727 -0.07695,-0.143789 -0.139915,-0.307353 -0.139915,-0.363476 0,-0.05612 0.533926,-0.05895 1.186501,-0.0063 5.040711,0.406813 10.618807,1.615371 14.625831,3.168852 2.675776,1.037371 5.365839,2.656487 5.985923,3.602857 0.219959,0.335698 0.215429,0.379296 -0.0782,0.752587 -1.239942,1.576331 -5.699193,3.717232 -10.28646,4.938566 -6.030084,1.605475 -12.554425,2.238073 -20.494147,1.987104 z"
     id="path2300"
     inkscape:connector-curvature="0" />
  <path
     style="fill:#ffffff;stroke:#000000;stroke-width:0.14381833;stroke-linecap:round;stroke-linejoin:round;stroke-miterlimit:4;stroke-dasharray:none;stroke-opacity:0.93969852;paint-order:stroke markers fill"
     d="m 42.150855,87.747658 c -0.976276,-0.06593 -2.828813,-0.250092 -4.11675,-0.409237 -13.319814,-1.645871 -22.500252,-6.170378 -23.679796,-11.6704 -0.302321,-1.409674 0.125828,-3.323673 1.019425,-4.557249 0.229833,-0.317274 0.624245,-0.987443 0.876471,-1.489263 0.625858,-1.245186 1.735382,-2.870965 4.111286,-6.024245 1.1052,-1.466813 2.372617,-3.254026 2.81648,-3.971585 3.466924,-5.604696 5.316198,-12.135403 5.857847,-20.686964 0.393383,-6.210732 0.596417,-7.539054 1.502185,-9.827845 1.483782,-3.749379 4.419691,-7.21656 7.816752,-9.231242 l 1.044496,-0.619456 -0.109677,-0.731376 c -0.43991,-2.933515 0.412574,-5.561687 2.479053,-7.642808 1.875864,-1.889155 3.785518,-2.686604 6.399915,-2.6725274 2.566194,0.013817 4.430091,0.806988 6.256097,2.6622474 2.078328,2.111624 2.919577,4.712617 2.477953,7.661385 l -0.110779,0.739673 0.82987,0.464946 c 3.819221,2.139769 7.098483,6.200392 8.426825,10.434716 0.582676,1.857377 0.801421,3.32299 0.959355,6.427737 0.46044,9.051633 1.756869,14.868235 4.543215,20.38375 1.098319,2.174101 2.350574,4.066359 5.124913,7.744159 1.154404,1.530337 2.380029,3.299568 2.723613,3.931627 0.343585,0.63206 0.841863,1.48331 1.107289,1.891668 1.132237,1.741954 1.564349,3.130971 1.402477,4.508243 -0.751889,6.397403 -12.422575,11.61565 -28.395036,12.696108 -2.529235,0.171091 -8.749359,0.164488 -11.363479,-0.01207 z m 11.745199,-1.138683 c 5.007432,-0.612097 8.143179,-1.150658 10.523959,-1.807482 4.187082,-1.155156 7.156929,-2.245517 9.583306,-3.518452 2.001276,-1.049918 2.3832,-1.315171 3.905995,-2.712796 1.670962,-1.533611 1.693114,-1.562366 2.216716,-2.877359 l 0.528888,-1.328268 -0.665577,-1.53339 c -0.731067,-1.684274 -2.65094,-4.636184 -5.861218,-9.011943 -2.808418,-3.828008 -4.226565,-6.324576 -5.349311,-9.417172 -1.492653,-4.1115 -2.134273,-7.289419 -3.063978,-15.175762 -0.242447,-2.056602 -0.638359,-4.774768 -0.879803,-6.04037 -0.434639,-2.278296 -0.450233,-2.322185 -1.574004,-4.430122 -0.892926,-1.674924 -1.460718,-2.52141 -2.662034,-3.968674 -1.36224,-1.641134 -1.687934,-1.944055 -3.01825,-2.80722 -1.706226,-1.107072 -2.949754,-1.623977 -5.431826,-2.257879 -1.713384,-0.437586 -1.801936,-0.445345 -4.101688,-0.359374 -1.292773,0.04833 -3.169603,0.195138 -4.170732,0.326247 -1.716403,0.224781 -1.914577,0.285692 -3.474145,1.06783 -1.583123,0.793951 -1.734766,0.911489 -3.543092,2.746227 -1.832678,1.859445 -1.929903,1.989902 -3.250632,4.361687 l -1.361449,2.444912 -0.518399,2.732548 c -0.285119,1.502902 -0.685156,4.253427 -0.888973,6.112279 -0.271815,2.479025 -0.603289,4.491239 -1.243795,7.550462 -0.817967,3.906817 -0.947094,4.361843 -2.040639,7.190917 l -1.167416,3.020185 -2.642368,4.026913 c -1.453303,2.214802 -3.659014,5.515433 -4.901581,7.334734 -1.242566,1.819302 -2.305541,3.384653 -2.362166,3.478556 -0.05662,0.09391 -0.232802,0.891853 -0.391506,1.773222 l -0.288553,1.602487 0.757259,1.643643 0.75726,1.643643 2.388124,1.430417 c 2.074168,1.242366 3.010281,1.684058 7.120611,3.359768 l 4.732488,1.929351 2.732549,0.44797 c 1.502901,0.246382 3.606244,0.58868 4.674095,0.760661 3.710763,0.597628 11.120875,0.727452 14.931885,0.261604 z m -9.703275,-69.1198 c 1.293231,-0.345872 6.224658,-0.352119 7.688488,-0.0097 0.578646,0.135341 1.087305,0.246075 1.130354,0.246075 0.173405,0 -0.08979,-1.848628 -0.368561,-2.58873 -0.503937,-1.337871 -1.643014,-2.444801 -2.964425,-2.880762 -0.809098,-0.266938 -2.402891,-0.285138 -3.249022,-0.0371 -1.294822,0.379566 -2.67079,1.730435 -3.160879,3.103224 -0.282901,0.792431 -0.369241,2.40337 -0.128811,2.40337 0.09305,0 0.566838,-0.106351 1.052856,-0.236336 z"
     id="path2304"
     inkscape:connector-curvature="0" />
  <path
     style="fill:#ffffff;stroke:#000000;stroke-width:0.14381833;stroke-linecap:round;stroke-linejoin:round;stroke-miterlimit:4;stroke-dasharray:none;stroke-opacity:0.93969852;paint-order:stroke markers fill"
     d="m 42.271991,85.598962 c -1.474016,-0.106578 -4.106224,-0.490176 -8.363866,-1.218888 -2.028547,-0.347195 -2.282604,-0.432266 -6.759462,-2.263452 -3.88806,-1.590346 -5.003836,-2.114687 -6.79679,-3.194042 l -2.145098,-1.291345 -0.616879,-1.329103 -0.616879,-1.329103 0.213957,-1.262322 0.213957,-1.262322 1.8604,-2.732548 c 1.023221,-1.502902 3.265805,-4.868251 4.98352,-7.478553 l 3.123119,-4.746005 1.185534,-3.029581 c 1.131934,-2.892611 1.22795,-3.230725 2.123721,-7.478553 0.716156,-3.396083 1.025993,-5.254024 1.30921,-7.850711 0.204062,-1.870956 0.591313,-4.540108 0.860555,-5.931449 l 0.489533,-2.52971 1.311405,-2.338105 c 1.24054,-2.211761 1.406189,-2.433907 3.065505,-4.111011 1.565777,-1.582564 1.90177,-1.847612 3.129547,-2.468738 1.199375,-0.606757 1.58599,-0.725922 3.020185,-0.9309 0.904606,-0.129288 2.744948,-0.27163 4.08965,-0.316316 2.20356,-0.07323 2.565588,-0.05032 3.667367,0.232069 2.427328,0.622124 3.753592,1.162697 5.262701,2.145027 1.281016,0.833856 1.647357,1.172607 2.898618,2.680309 1.131164,1.362993 1.660167,2.164236 2.516251,3.811186 1.082859,2.083223 1.084422,2.087877 1.522532,4.530277 0.241206,1.344701 0.609132,3.933431 0.817613,5.752733 0.847971,7.399817 1.582891,11.005304 3.088662,15.152849 0.835911,2.302456 1.174113,3.015669 2.397337,5.055576 0.783273,1.306223 2.234818,3.474285 3.225656,4.817914 2.974527,4.033618 4.845113,6.878368 5.478029,8.330876 l 0.586093,1.345056 -0.388714,1.017253 c -0.360975,0.944661 -0.498264,1.115899 -1.923871,2.399603 -1.258982,1.133667 -1.897375,1.576893 -3.548612,2.463746 -3.53229,1.897138 -9.601241,3.793305 -14.453742,4.51589 -6.024088,0.897045 -7.188828,0.996554 -11.392209,0.973295 -2.158444,-0.01195 -4.603984,-0.07085 -5.434535,-0.130902 z m 13.087468,-3.870396 c 5.670709,-0.554766 11.570825,-1.908903 14.781265,-3.392451 0.417437,-0.192898 0.81962,-0.350724 0.893741,-0.350724 0.254086,0 3.092989,-1.609537 3.812377,-2.161456 0.3955,-0.303429 0.833741,-0.746373 0.973867,-0.984319 0.253969,-0.431258 0.253359,-0.434242 -0.192266,-0.941781 -0.995587,-1.13391 -4.328825,-2.95874 -7.109607,-3.892258 -2.130465,-0.715204 -5.44586,-1.546412 -7.981918,-2.001157 -2.115347,-0.379308 -5.440995,-0.805404 -6.28611,-0.805404 -0.334763,0 -0.509792,-0.08974 -0.631121,-0.323591 -0.621531,-1.197939 -2.034392,-2.317853 -3.589267,-2.845056 -0.776142,-0.263162 -1.152101,-0.303793 -2.309449,-0.249592 -1.16301,0.05447 -1.533523,0.135463 -2.334728,0.510391 -1.218403,0.57016 -1.972283,1.180341 -2.619684,2.120339 l -0.516352,0.749721 -1.247519,0.1003 c -8.1499,0.655248 -16.49996,3.168877 -19.825398,5.968068 -0.55867,0.470262 -1.05656,0.961334 -1.106422,1.091273 -0.329677,0.859124 3.212378,3.153634 6.95638,4.50628 4.274767,1.544401 10.062689,2.679751 15.46047,3.032703 2.433458,0.159119 10.772705,0.07406 12.871741,-0.131286 z"
     id="path2306"
     inkscape:connector-curvature="0" />
</svg>
