<?xml version="1.0" encoding="UTF-8" standalone="no"?>
<svg
   xmlns:dc="http://purl.org/dc/elements/1.1/"
   xmlns:cc="http://creativecommons.org/ns#"
   xmlns:rdf="http://www.w3.org/1999/02/22-rdf-syntax-ns#"
   xmlns:svg="http://www.w3.org/2000/svg"
   xmlns="http://www.w3.org/2000/svg"
   xmlns:sodipodi="http://sodipodi.sourceforge.net/DTD/sodipodi-0.dtd"
   xmlns:inkscape="http://www.inkscape.org/namespaces/inkscape"
   viewBox="0 0 96 96"
   id="Icons_MiningTools"
   overflow="hidden"
   version="1.1"
   sodipodi:docname="Work.svg"
   inkscape:version="0.92.4 (5da689c313, 2019-01-14)">
  <metadata
     id="metadata13">
    <rdf:RDF>
      <cc:Work
         rdf:about="">
        <dc:format>image/svg+xml</dc:format>
        <dc:type
           rdf:resource="http://purl.org/dc/dcmitype/StillImage" />
      </cc:Work>
    </rdf:RDF>
  </metadata>
  <defs
     id="defs11" />
  <sodipodi:namedview
     pagecolor="#ffffff"
     bordercolor="#666666"
     borderopacity="1"
     objecttolerance="10"
     gridtolerance="10"
     guidetolerance="10"
     inkscape:pageopacity="0"
     inkscape:pageshadow="2"
     inkscape:window-width="876"
     inkscape:window-height="715"
     id="namedview9"
     showgrid="false"
     inkscape:zoom="2.4583333"
     inkscape:cx="48"
     inkscape:cy="48"
     inkscape:window-x="0"
     inkscape:window-y="0"
     inkscape:window-maximized="0"
     inkscape:current-layer="Icons_MiningTools" />
  <path
     d="M4.1 44.2 9.6 29.8C9.8 29.2 10.2 28.7 10.6 28.3L13.5 25.4 12 23.8C11.2 23 11.2 21.6 12 20.8L15.1 17.7C15.9 16.9 17.3 16.9 18.1 17.7L19.7 19.2 28.6 10.3C29.4 9.5 30.8 9.5 31.6 10.3L41.3 20.1C42.1 20.9 42.1 22.3 41.3 23.1L32.7 31.8 82.5 79.4C83.3 80.2 83.3 81.6 82.5 82.4L76.6 88.3C75.8 89.1 74.4 89.1 73.6 88.3L26 38.5 23.5 41C23 41.5 22.4 41.8 21.8 42L6.8 46.9C6 47.1 5.2 46.9 4.6 46.3 4 45.8 3.8 44.9 4.1 44.2Z"
     stroke-width="1.33333"
     fill="#A5A5A5"
     id="path2" />
  <path
     d="M64.1 28.4 51.1 19.8C50.6 19.4 50.3 18.9 50.2 18.3 50.2 17.7 50.4 17.1 50.8 16.6L59.8 7.7C60.5 7 61.7 6.9 62.5 7.5L77.8 17.7C77.9 17.7 78 17.8 78 17.9L78.1 18 81 20.9 81.2 21.1 81.3 21.2 81.3 21.3 91.6 36.3C92.2 37.1 92.1 38.3 91.4 39L82.4 47.9C82 48.3 81.3 48.6 80.7 48.5 80.1 48.4 79.5 48.1 79.1 47.6L70.7 35 57.1 49.2 49.7 42.1 64.1 28.4Z"
     stroke-width="1.33333"
     fill="#A5A5A5"
     id="path4" />
  <path
     d="M19.7 88.3C18.9 89.1 17.5 89.1 16.7 88.3L10.7 82.3C9.9 81.5 9.9 80.1 10.7 79.3L36 55.2 43.7 63.2 19.7 88.3Z"
     stroke-width="1.33333"
     fill="#A5A5A5"
     id="path6" />
  <path
     style="fill:#ffffff;stroke:#000000;stroke-width:0.40677965;stroke-linecap:round;stroke-linejoin:round;stroke-miterlimit:4;stroke-dasharray:none;stroke-opacity:0.93969852;paint-order:stroke markers fill"
     d="m 13.801689,85.191953 c -2.195951,-2.206172 -3.550842,-3.892232 -3.550842,-4.418755 0,-0.588318 3.98894,-4.643298 12.909715,-13.123447 L 36.070277,55.37769 39.61558,59.153252 c 1.949917,2.076559 3.554105,3.907577 3.564862,4.068928 0.01076,0.161351 -5.413561,5.973216 -12.054041,12.915254 -8.303276,8.680346 -12.339077,12.621888 -12.923735,12.621888 -0.527773,0 -2.196582,-1.352712 -4.400977,-3.567369 z"
     id="path4523"
     inkscape:connector-curvature="0" />
  <path
     style="fill:#ffffff;stroke:#000000;stroke-width:0.40677965;stroke-linecap:round;stroke-linejoin:round;stroke-miterlimit:4;stroke-dasharray:none;stroke-opacity:0.93969852;paint-order:stroke markers fill"
     d="m 50.135793,63.526218 -24.112266,-25.233103 -1.88634,1.743597 c -1.730457,1.599511 -2.566619,1.959127 -10.118405,4.351724 -8.0164572,2.539816 -8.2535093,2.588719 -9.050847,1.867138 -0.4503303,-0.407543 -0.8187825,-0.966653 -0.8187825,-1.242467 0,-0.514013 5.0433145,-13.974705 5.7849857,-15.440226 0.2264498,-0.447457 1.1489048,-1.579544 2.0498998,-2.515747 L 13.622212,25.354946 12.5467,24.076771 c -0.591533,-0.702996 -1.075514,-1.566562 -1.075514,-1.919035 0,-0.833852 4.157783,-4.991634 4.991635,-4.991634 0.352473,0 1.214856,0.482985 1.916407,1.073302 l 1.275547,1.073302 4.79336,-4.734319 c 2.769233,-2.735125 5.123375,-4.7343192 5.574874,-4.7343192 0.460923,0 2.990202,2.2132432 6.165694,5.3952842 3.999395,4.007645 5.384178,5.653798 5.384178,6.400414 0,0.737373 -1.217154,2.225749 -4.569043,5.587173 l -4.569042,4.582041 1.21311,1.166708 c 0.667211,0.64169 11.921586,11.38175 25.009721,23.866803 13.088136,12.485048 23.94506,22.947043 24.1265,23.248873 0.18144,0.301831 0.224262,0.881589 0.09516,1.288357 -0.376014,1.184709 -6.952665,7.379601 -7.834372,7.379601 -0.523587,0 -9.065797,-8.653314 -24.909124,-25.233104 z"
     id="path4525"
     inkscape:connector-curvature="0" />
  <path
     style="fill:#ffffff;stroke:#000000;stroke-width:0.40677965;stroke-linecap:round;stroke-linejoin:round;stroke-miterlimit:4;stroke-dasharray:none;stroke-opacity:0.93969852;paint-order:stroke markers fill"
     d="m 53.416476,45.484519 -3.397153,-3.414894 4.420847,-4.227772 c 2.431466,-2.325274 5.657042,-5.395448 7.167946,-6.822608 l 2.7471,-2.594835 -6.916591,-4.615714 c -6.129561,-4.090499 -6.917508,-4.742605 -6.924645,-5.73085 -0.0065,-0.8996 0.955802,-2.038951 4.978768,-5.894795 2.945243,-2.8228913 5.317523,-4.7796612 5.794599,-4.7796612 1.143502,0 16.605536,10.3728802 18.444203,12.3735022 1.525542,1.659918 11.665514,16.301586 12.132725,17.519116 0.172727,0.450124 -1.209319,2.122757 -4.581346,5.544611 -2.655781,2.695022 -5.161306,5.081235 -5.567834,5.302689 -1.248792,0.680283 -2.310608,-0.435136 -6.592136,-6.924914 -2.232204,-3.383489 -4.241603,-6.106528 -4.465332,-6.051198 -0.223729,0.05533 -3.304626,3.12094 -6.846439,6.812465 -3.541813,3.691525 -6.565187,6.75864 -6.718609,6.815809 -0.153422,0.05717 -1.807668,-1.43276 -3.676103,-3.310951 z"
     id="path4527"
     inkscape:connector-curvature="0" />
</svg>
